<svg width="16" height="16" viewBox="0 0 16 16" fill="none" xmlns="http://www.w3.org/2000/svg">
<path fill-rule="evenodd" clip-rule="evenodd" d="M3.52851 3.52861C3.78886 3.26826 4.21097 3.26826 4.47132 3.52861L7.99992 7.0572L11.5285 3.52861C11.7889 3.26826 12.211 3.26826 12.4713 3.52861C12.7317 3.78896 12.7317 4.21107 12.4713 4.47141L8.94273 8.00001L12.4713 11.5286C12.7317 11.789 12.7317 12.2111 12.4713 12.4714C12.211 12.7318 11.7889 12.7318 11.5285 12.4714L7.99992 8.94282L4.47132 12.4714C4.21097 12.7318 3.78886 12.7318 3.52851 12.4714C3.26816 12.2111 3.26816 11.789 3.52851 11.5286L7.05711 8.00001L3.52851 4.47141C3.26816 4.21107 3.26816 3.78896 3.52851 3.52861Z" fill=""/>
</svg>
